<svg width="2166" height="1257" viewBox="0 0 2166 1257" fill="none" xmlns="http://www.w3.org/2000/svg">
<g clip-path="url(#clip0_1_13)">
<path d="M64.74 1103.16L60.15 1162.4L35.82 1150.92L54.64 1171.58L0 1175.71L56.02 1182.6L38.57 1202.34L60.61 1190.41L67.5 1256.07L72.09 1190.41L93.67 1202.34L76.68 1182.14L140.05 1175.71L76.22 1171.58L97.8 1150.92L71.63 1163.31L64.74 1103.16Z" fill="white"/>
<path d="M1587.57 784.14L1582.98 843.38L1558.64 831.9L1577.47 852.56L1522.83 856.69L1578.85 863.58L1561.4 883.32L1583.44 871.39L1590.33 937.05L1594.92 871.39L1616.5 883.32L1599.51 863.12L1662.88 856.69L1599.05 852.56L1620.63 831.9L1594.46 844.29L1587.57 784.14Z" fill="white"/>
<path d="M2089.7 962.64L2085.11 1021.87L2060.78 1010.4L2079.6 1031.06L2024.96 1035.19L2080.98 1042.08L2063.53 1061.82L2085.57 1049.88L2092.46 1115.55L2097.05 1049.88L2118.63 1061.82L2101.64 1041.62L2165.01 1035.19L2101.18 1031.06L2122.76 1010.4L2096.59 1022.79L2089.7 962.64Z" fill="white"/>
<path d="M1811.44 0L1806.85 59.23L1782.51 47.75L1801.34 68.42L1746.7 72.55L1802.72 79.44L1785.27 99.18L1807.31 87.24L1814.19 152.9L1818.79 87.24L1840.37 99.18L1823.38 78.98L1886.74 72.55L1822.92 68.42L1844.5 47.75L1818.33 60.15L1811.44 0Z" fill="white"/>
<path d="M680.16 55.07L675.57 114.3L651.24 102.82L670.06 123.49L615.42 127.62L671.44 134.51L653.99 154.25L676.03 142.31L682.92 207.97L687.51 142.31L709.09 154.25L692.1 134.05L755.47 127.62L691.64 123.49L713.22 102.82L687.05 115.22L680.16 55.07Z" fill="white"/>
<path d="M877.95 617.39L873.36 676.62L849.02 665.14L867.85 685.81L813.21 689.94L869.22 696.83L851.78 716.57L873.82 704.63L880.7 770.29L885.3 704.63L906.88 716.57L889.89 696.37L953.25 689.94L889.43 685.81L911.01 665.14L884.84 677.54L877.95 617.39Z" fill="white"/>
<path d="M135.94 377.96L131.35 437.19L107.02 425.71L125.84 446.37L71.2 450.5L127.22 457.39L109.77 477.14L131.81 465.2L138.7 530.86L143.29 465.2L164.87 477.14L147.88 456.93L211.25 450.5L147.42 446.37L169 425.71L142.83 438.11L135.94 377.96Z" fill="white"/>
<path d="M438.4 780.23L435.59 816.48L420.69 809.46L432.22 822.1L398.77 824.63L433.06 828.85L422.38 840.93L435.87 833.63L440.08 873.81L442.9 833.63L456.1 840.93L445.71 828.57L484.49 824.63L445.42 822.1L458.63 809.46L442.61 817.04L438.4 780.23Z" fill="white"/>
<path d="M2011.16 505.41L2008.35 541.67L1993.45 534.64L2004.98 547.29L1971.53 549.82L2005.82 554.03L1995.14 566.12L2008.63 558.81L2012.84 599L2015.66 558.81L2028.86 566.12L2018.47 553.75L2057.25 549.82L2018.18 547.29L2031.39 534.64L2015.37 542.23L2011.16 505.41Z" fill="white"/>
<path d="M1277.72 282.23L1274.91 318.49L1260.01 311.46L1271.53 324.11L1238.09 326.64L1272.38 330.85L1261.7 342.94L1275.19 335.63L1279.4 375.82L1282.21 335.63L1295.42 342.94L1285.02 330.57L1323.81 326.64L1284.74 324.11L1297.95 311.46L1281.93 319.05L1277.72 282.23Z" fill="white"/>
</g>
<defs>
<clipPath id="clip0_1_13">
<rect width="2165.01" height="1256.07" fill="white"/>
</clipPath>
</defs>
</svg>
